<?xml version="1.0" standalone="no"?>
<!DOCTYPE svg PUBLIC "-//W3C//DTD SVG 20010904//EN"
 "http://www.w3.org/TR/2001/REC-SVG-20010904/DTD/svg10.dtd">
<svg version="1.0" xmlns="http://www.w3.org/2000/svg"
 width="512.000000pt" height="512.000000pt" viewBox="0 0 512.000000 512.000000"
 preserveAspectRatio="xMidYMid meet">

<g transform="translate(0.000000,512.000000) scale(0.100000,-0.100000)"
fill="#000000" stroke="none">
<path d="M3815 5056 c-64 -29 -72 -47 -177 -413 -55 -191 -103 -351 -107 -356
-4 -4 -32 14 -62 40 -279 239 -650 321 -983 216 -44 -14 -142 -56 -216 -94
-260 -133 -374 -133 -645 5 -174 88 -294 124 -451 133 -599 35 -1137 -494
-1170 -1152 -11 -197 18 -356 105 -585 130 -338 165 -547 162 -970 -1 -157 3
-330 9 -385 60 -551 336 -1054 744 -1358 118 -88 124 -89 300 -85 169 4 199
13 235 71 21 34 21 44 21 583 0 311 5 579 10 619 14 93 48 161 115 224 82 77
129 96 245 96 84 0 101 -3 146 -27 67 -35 108 -70 145 -124 66 -96 63 -70 69
-726 5 -583 5 -597 26 -624 50 -67 57 -69 264 -69 l188 0 48 34 c354 250 619
653 733 1116 47 191 55 276 56 610 1 176 7 361 14 410 15 119 48 285 73 364
l20 64 18 -30 c26 -43 81 -66 142 -61 40 4 57 12 84 39 31 31 42 63 148 433
63 219 116 399 118 401 2 2 182 55 401 118 435 125 445 130 469 208 21 71 -15
152 -79 178 -16 6 -198 60 -406 120 -208 60 -381 111 -384 114 -3 3 -56 182
-118 398 -63 216 -122 404 -133 418 -39 54 -116 74 -177 47z m116 -876 c70
-243 57 -229 301 -300 103 -30 186 -56 184 -57 -2 -2 -73 -24 -157 -48 -205
-60 -235 -72 -258 -104 -11 -15 -43 -109 -72 -210 -30 -104 -55 -177 -60 -169
-3 7 -28 90 -55 183 -64 229 -60 225 -289 289 -93 27 -176 52 -183 56 -8 4 58
27 155 54 201 57 227 69 252 110 10 17 40 103 66 191 25 88 49 168 51 178 3
10 7 17 9 15 1 -2 26 -86 56 -188z m-2627 85 c38 -10 129 -49 202 -86 191 -99
275 -122 444 -122 174 0 249 19 431 112 194 99 254 116 409 115 110 0 135 -3
205 -28 84 -29 167 -71 224 -114 l34 -25 -274 -79 c-248 -72 -277 -82 -308
-113 -29 -28 -35 -42 -38 -87 -5 -63 18 -114 63 -140 16 -9 205 -67 419 -128
215 -61 391 -113 391 -113 1 -1 19 -63 41 -138 l40 -136 -17 -64 c-9 -35 -39
-122 -67 -194 -61 -157 -94 -269 -127 -435 -42 -213 -50 -308 -48 -585 2 -274
-7 -399 -38 -555 -59 -292 -212 -595 -403 -796 -128 -136 -190 -184 -237 -184
l-39 0 -3 517 -3 518 -29 84 c-118 338 -456 527 -790 441 -117 -30 -209 -83
-296 -170 -121 -122 -180 -244 -200 -416 -5 -49 -10 -293 -10 -541 0 -452 0
-453 -21 -453 -28 0 -120 73 -218 171 -213 215 -368 516 -435 841 -29 142 -36
246 -35 538 1 224 -3 324 -15 415 -31 222 -83 422 -168 650 -68 180 -83 256
-82 415 1 111 6 152 28 235 90 344 358 608 674 665 69 13 217 5 296 -15z"/>
</g>
</svg>
